PathFileType	4	(X/Y/Z)	8_2_79_p0_0-259.trc
DataRate	CameraRate	NumFrames	NumMarkers	Units	OrigDataRate	OrigDataStartFrame	OrigNumFrames
58.0	58.0	6	27	m	58.0	97	260
Frame#	Time	RHip			RKnee			RAnkle			RBigToe			RSmallToe			RHeel			LHip			LKnee			LAnkle			LBigToe			LSmallToe			LHeel			Neck			Head			Nose			RShoulder			RElbow			RWrist			RThumb			RIndex			RPinky			LShoulder			LElbow			LWrist			LThumb			LIndex			LPinky			
		X1	Y1	Z1	X2	Y2	Z2	X3	Y3	Z3	X4	Y4	Z4	X5	Y5	Z5	X6	Y6	Z6	X7	Y7	Z7	X8	Y8	Z8	X9	Y9	Z9	X10	Y10	Z10	X11	Y11	Z11	X12	Y12	Z12	X13	Y13	Z13	X14	Y14	Z14	X15	Y15	Z15	X16	Y16	Z16	X17	Y17	Z17	X18	Y18	Z18	X19	Y19	Z19	X20	Y20	Z20	X21	Y21	Z21	X22	Y22	Z22	X23	Y23	Z23	X24	Y24	Z24	X25	Y25	Z25	X26	Y26	Z26	X27	Y27	Z27	
97	1.6724137931034482	0.2835971560569779	0.6231571394299098	0.8546351091211198	0.27860415031068697	0.7234432707603334	1.2621919091509697	0.2489950075781744	0.9348404829467901	1.7039050495177548	0.21418184014952282	0.6899672232228721	1.757030863013342	0.2833111808714055	0.7707297319303991	1.7682707013666907	0.23219665704094886	0.9914507022231627	1.7462111728628613	0.07437953514525322	0.6103053070078404	0.8418804663420066	0.06986558843574794	0.721885241186586	1.2700658106597806	0.07626415493462599	0.9368482905535039	1.7009880424684451	0.05040247335695899	0.7327115088104647	1.7819432537197306	-0.006609198685821553	0.749908682968336	1.7478248178686688	0.07717288901443412	1.0134981796266505	1.7696007579344257	0.2133480256318931	0.529513077304988	0.22884497760846223	0.2644911309010703	0.39930881664531975	0.003071565018255498	0.24579464399039427	0.36428039264686835	0.1485210065341664	0.3609579253252136	0.5721710671980759	0.336857025620365	0.3868430815780137	0.660517348554042	0.6079276846050202	0.4073037748498304	0.6743125539432276	0.8587475183781145	0.3983770378778934	0.6569112869892118	0.9937478889774829	0.4076650297112779	0.67206266478599	1.000868687342858	0.40391510884241244	0.7015066827017193	0.995758433509978	0.041023450276102574	0.5160700717035321	0.31039322593387075	-0.02948569723510605	0.605630741303676	0.6134007652570094	-0.06328403497652205	0.5833589219463227	0.8426058016414691	-0.0127972471884518	0.5264356148890049	0.9261773332797657	-0.03991088768618541	0.5402980961785323	0.9515571130903873	-0.06998333181479129	0.5922243237362432	0.9607868971087892
98	1.6896551724137931	0.2829329817691188	0.6207210637715276	0.8507606360231701	0.2786870214504448	0.7234814539818007	1.262177660752532	0.24906365975679737	0.9350587582247515	1.703874495868046	0.21412507062614686	0.6900129799206689	1.7570897279749276	0.2833538746069907	0.7710028577500997	1.7683789073631009	0.22803558922831602	0.9913573375709499	1.7423960020213898	0.07403926664784068	0.6077053077111331	0.8377432899789731	0.0698386509352985	0.7225908351717489	1.2661968826073904	0.07698656710655764	0.9400890292106648	1.7062364037789388	0.05071204665356666	0.7309745644966187	1.7859270169277464	-0.0030405097157842763	0.7357114184099918	1.7468564874223187	0.07591198922306144	1.015226436145425	1.7748556215172535	0.21352440154847743	0.529477046900003	0.22886089026314496	0.26810659585690905	0.41055804887532404	0.0006913770605311741	0.2381908290490535	0.37545271205701913	0.146717873246154	0.36093670676493683	0.5719404561818167	0.3368760379750123	0.3869690763678712	0.6596532797038962	0.6120229184849526	0.4026191777689426	0.6727831379172833	0.8585081468836009	0.3981244307646066	0.657479806463723	0.9900918015629425	0.4034272060716899	0.6699821412707541	1.000482424784162	0.39931991301460545	0.6876168327524633	0.9938071508556557	0.04102145791348283	0.5160138454512114	0.310375604015449	-0.024886450837074334	0.6064353466442596	0.6058262592701246	-0.057757294962752906	0.5697815955697075	0.8341946477098122	-0.012726336389659603	0.5259595730102715	0.9260961920713262	-0.03979934375631938	0.5397570514750836	0.9514667428042327	-0.06514037925681258	0.5800893053912658	0.9553807844758956
99	1.706896551724138	0.2828705820087331	0.6207236897612668	0.8506878793425421	0.27782716063389734	0.7249660628702268	1.2666130519312238	0.24907014900195704	0.935378573404996	1.703913179434822	0.21813374391409696	0.7035730933138423	1.7620387012159424	0.2833964995582175	0.7710301707768075	1.7683966892390865	0.228020317732859	0.9913732924835399	1.7423232224350345	0.0738163297205295	0.6072185790254659	0.8376189428545906	0.06976841795620951	0.722796999538944	1.2662494580078898	0.07694833309079532	0.940296720684547	1.7063071940663743	0.050568358488275934	0.7323745131984305	1.7818481765049257	-0.00410881924572464	0.7647737405561954	1.7532332092886849	0.07716051335564278	1.0135143607781636	1.76963336817851	0.21362874352389402	0.5297432111702599	0.22885032065177702	0.26826588469975926	0.4103595603485793	0.000690518917695129	0.24240453141125318	0.3762975631393918	0.14337653625423463	0.357702326220877	0.5864290361147587	0.3358000491601682	0.3827532477896961	0.6464499847700722	0.6121753606354009	0.39818012762619015	0.6593334141333327	0.857502901221017	0.39796732759923387	0.6569124092227498	0.9901652369089122	0.3989104281174361	0.6571909113187225	0.9989623876158698	0.3993774420818116	0.6870918273193918	0.9976116894139948	0.04100786234685504	0.5160714654510382	0.31035346543458536	-0.024479581335087167	0.5923392996640331	0.60959179858436	-0.05757932865317451	0.5693514534669377	0.8341283309327975	-0.007814968622588993	0.5137821978860043	0.9247016089574903	-0.034760727070619994	0.5267370334646861	0.9496922434064329	-0.06496313574473711	0.5796047613964975	0.9552216274158655
100	1.7241379310344827	0.28292906365816706	0.6204026925103481	0.8505258193830386	0.27779841979687775	0.7251874641397574	1.2669248191073579	0.24901835600801817	0.9351342073228521	1.7039233792824526	0.21828011840648903	0.7039865893051733	1.7621481041590448	0.2835090271348054	0.7713083649353036	1.7684805327555526	0.22801485525139173	0.9914257739233621	1.7423035108952858	0.07409370132046117	0.6066240237059267	0.8374967725865091	0.06973453247529578	0.7226773689921319	1.266162351400312	0.07620783124571395	0.9366635383338271	1.7008434010924853	0.05046439299291281	0.7326297552547535	1.7820910152568499	-0.0030212342879606564	0.7358543387519498	1.7469617701388687	0.08255475257364238	0.9944498720418451	1.7630519885924285	0.21366879707981962	0.5298116954076688	0.22880834945120299	0.26823302977348296	0.4107205716886576	0.000669184171829516	0.24238842287652873	0.37643735868058886	0.14330931958382195	0.3610136151593869	0.5718997305925958	0.33682690194008785	0.3827872419800572	0.6460114668558912	0.6122080699038402	0.3981582802582472	0.659224091247209	0.8574939343544379	0.39361212030158704	0.6442508167073568	0.9882904728723381	0.3987788579607928	0.6568263980939842	0.9986043121780128	0.3999506410567184	0.685759615571315	0.9933074713380818	0.041050274713216144	0.5159760101616537	0.3102807604873839	-0.020351238980474553	0.5940203773370799	0.609655859345516	-0.057430331105721856	0.568957300837732	0.8340885742732681	-0.007559498709607272	0.5134414901638479	0.9247485852580021	-0.028869346230421585	0.5123721725595696	0.9490647221401142	-0.06388479432162839	0.5774839140659785	0.9514895163465228
101	1.7413793103448276	0.28289239747200295	0.6205895677704157	0.8505043308668369	0.27780212747225524	0.7250104106851694	1.2667125233709222	0.24901086295948383	0.9351885192270362	1.7039311458935935	0.21824631596359534	0.7039932353477458	1.7622111813333243	0.2834594610731998	0.7711864383188677	1.7684963006566043	0.22801872354352257	0.9914945264675187	1.7422728215397476	0.07407180786506429	0.6061762467436973	0.8373533176759821	0.06979420280121665	0.7224023737049979	1.2660845434570687	0.0762626350184591	0.9366121804307602	1.7007542119131185	0.050323169453700245	0.7327879348227951	1.7821432417002183	-0.007943030791113118	0.7516207635206948	1.7524766813035817	0.07491334017765136	1.01167726481461	1.7692577879630016	0.21370591164955988	0.5299115269853709	0.22879459399920737	0.27248799292965176	0.4118983344494118	0.0003967838783187386	0.24255637244762654	0.3766296565240933	0.14330705703329663	0.3608829606590921	0.5697241682538788	0.32566554012886373	0.3824624224378932	0.6427756252322477	0.6046058533608094	0.3981210246122398	0.659166537281273	0.857384779036617	0.39422266995367117	0.6428466257456625	0.984032141207845	0.3987331096713655	0.6564187216386558	0.9983891416383524	0.3952320046887852	0.6720156208367513	0.9914714953191546	0.04106205125656527	0.5161083033458304	0.31033396545338854	-0.020234182364361808	0.5936903160807501	0.6097163233673505	-0.05735651816603234	0.5686771384827467	0.8340839762939419	-0.007535595558059899	0.5128908544508342	0.9247848900755284	-0.028913380441224917	0.5113974199804094	0.9490838031640657	-0.06380005211474284	0.5773383193345532	0.9516392010862419
102	1.7586206896551724	0.28292732691002703	0.6206528059479582	0.8505680315168395	0.2778837711126714	0.7252023019971212	1.2669840693968561	0.24902105147635273	0.9354064179031741	1.7039497254374347	0.21819892280205833	0.7035467786704496	1.7621053002098566	0.28337201225546854	0.7708448586126186	1.768383124054053	0.2293488968563455	0.9898794571588622	1.7369544729514685	0.07410765554147936	0.6064305199337111	0.8374154489862169	0.06974394825370282	0.7226532963024959	1.266249445163444	0.07516347776162836	0.9383234178455895	1.7054322101762562	0.05040016372031476	0.7324970356707114	1.7820307817268253	-0.003048165769880351	0.735618886109253	1.7467527982320403	0.07501091772675043	1.0115222386588283	1.7689618578558002	0.2176404860799112	0.5157422856162749	0.2270015810953773	0.27255884978096867	0.41208232323624394	0.00031864621323765573	0.2467409715712097	0.37768348825505504	0.14317813396191564	0.36447497100487664	0.5549672597214577	0.33084667894262687	0.38180584571605647	0.6439282712294968	0.6037354847560017	0.398099831958353	0.6592775030323444	0.857217927806781	0.39343970926154526	0.6411109539282643	0.9761957687511807	0.39864039453825395	0.6568306699220902	0.9946270579971712	0.3944401718632899	0.6705387610360084	0.9838256394648389	0.0411041663498	0.5158431340327794	0.30656337208895434	-0.0196751460137212	0.5929963685612579	0.6058034495666362	-0.05718171766942097	0.5681420539124878	0.8378561364246213	-0.007568472456898363	0.512789686137521	0.9246979379670242	-0.029200073993549274	0.5090302404422206	0.9446627910042386	-0.06405292931691105	0.5772044620349155	0.9548351333772321
